<svg width="204" height="70" viewBox="0 0 204 70" fill="none" xmlns="http://www.w3.org/2000/svg">
<path d="M44.2998 46.1243C43.2588 47.8964 42.2658 49.6937 41.177 51.4405C37.044 58.0667 32.1846 64.1565 26.6995 69.5838C26.1731 70.1072 25.8919 70.1513 25.3296 69.5838C21.4792 65.7595 17.9262 61.6155 14.7048 57.1919C12.3404 53.9487 10.182 50.5443 8.24381 47.0009C7.76522 46.1306 7.38235 45.2162 6.89179 44.3586C6.62258 43.8856 6.82 43.6838 7.19091 43.5829C8.53695 43.1919 9.84111 42.6748 11.2051 42.3216C11.6657 42.2144 11.8512 42.3216 12.0187 42.6811C14.6623 47.8607 17.8294 52.7238 21.4649 57.1856C22.4281 58.3901 23.3374 59.5504 24.2587 60.7486C24.498 61.064 24.8569 61.5811 25.1381 61.909C25.7364 62.6847 26.0474 62.6721 26.6756 61.909C28.249 60.0171 29.8104 58.1252 31.3299 56.2333C33.7275 53.1862 35.9261 49.971 37.9106 46.6099C38.5088 45.5694 39.107 44.4973 39.6574 43.4063C39.9266 42.8576 40.2557 42.7757 40.7462 43.0279C41.9427 43.5955 43.1392 44.1189 44.3357 44.6613C45.1732 45.0207 44.557 45.6513 44.2998 46.1243Z" fill="#0AADEB"/>
<path d="M26.2807 58.0937C26.2556 58.1289 26.2231 58.1575 26.1857 58.1772C26.1484 58.1969 26.1071 58.2072 26.0654 58.2072C26.0236 58.2072 25.9823 58.1969 25.945 58.1772C25.9076 58.1575 25.8751 58.1289 25.85 58.0937C24.7492 56.5171 24.0074 54.8775 23.1041 53.2946C22.5058 52.2351 21.9495 51.1441 21.3093 50.1414C21.1693 49.9134 21.0762 49.657 21.036 49.3887C20.9958 49.1204 21.0094 48.8462 21.076 48.5838C21.5147 45.8889 21.9435 43.1961 22.3622 40.5054C22.5597 39.2441 22.5417 39.2441 23.7741 39.2441C25.4133 39.2441 27.0584 39.2757 28.6976 39.2441C29.2958 39.2441 29.601 39.4144 29.6907 40.045C29.8821 41.4387 30.1154 42.8261 30.3428 44.2135C30.5701 45.6009 30.7795 46.982 31.0128 48.3694C31.1676 49.0103 31.0773 49.6897 30.7615 50.2613C29.3736 52.7081 28.4224 54.4486 27.0405 56.8955C26.9208 57.0279 26.4183 57.9108 26.2807 58.0937Z" fill="#0AADEB"/>
<path d="M16.6849 9.98286C16.5473 5.70718 19.7838 1.78466 23.8638 0.870245C26.0957 0.331143 28.4377 0.675784 30.4442 1.83859C32.4507 3.0014 33.9817 4.90121 34.7458 7.17655C35.1439 8.35418 35.2897 9.6101 35.1728 10.8542C35.056 12.0982 34.6793 13.2996 34.0698 14.372C32.305 17.7144 29.7684 20.4135 27.2259 23.1126C26.8012 23.5603 26.3824 24.2919 25.9158 24.336C25.4491 24.3802 25.0423 23.6045 24.6236 23.1693C22.3384 20.8991 20.2815 18.3864 18.4856 15.6711C17.4088 13.8991 16.5533 12.0829 16.6849 9.98286ZM25.8679 4.7297C21.8417 4.7297 19.383 8.8225 21.2136 12.4928C22.3263 14.7126 23.9356 16.5351 25.5508 18.3702C25.8739 18.736 26.0474 18.572 26.2807 18.3324C27.6807 16.8604 28.9447 15.2514 30.0556 13.527C30.6809 12.634 31.0803 11.588 31.2162 10.4874C31.265 9.72819 31.1611 8.96671 30.9111 8.25286C30.6612 7.53902 30.2709 6.88894 29.7659 6.34526C29.2609 5.80158 28.6525 5.3766 27.9807 5.09817C27.309 4.81975 26.5889 4.69418 25.8679 4.7297Z" fill="white"/>
<path d="M51.1376 21.0567C51.1049 25.7755 50.3598 30.4588 48.9301 34.9306C48.3319 36.7279 47.7336 38.5 47.0636 40.2594C46.8303 40.8522 46.6209 40.8901 46.1184 40.5558C44.9872 39.7614 43.785 39.0855 42.529 38.5378C42.0623 38.3423 42.182 38.0901 42.3375 37.7243C43.5912 34.6719 44.5357 31.4885 45.1552 28.227C45.5495 26.3935 45.7502 24.5196 45.7535 22.6396C45.7535 22.2045 45.6398 22.009 45.239 21.9018C43.8451 21.6117 42.4572 21.2711 41.0513 21.0315C39.1908 20.7162 37.3183 20.4639 35.4518 20.1928C35.1108 20.1486 34.9672 20.0919 35.2125 19.7135C36.1601 18.3786 36.9628 16.936 37.6054 15.4126C37.7251 15.1036 37.9046 15.0784 38.2575 15.1162C42.2974 15.6421 46.2961 16.4746 50.2223 17.6072C50.8206 17.7711 51.1496 18.0612 51.0898 18.7612C51.03 19.4612 51.1376 20.2874 51.1376 21.0567Z" fill="white"/>
<path d="M6.02431 22.9234C6.07217 26.4171 6.84989 29.5324 7.6934 32.6288C8.07628 34.054 8.63264 35.4288 9.11123 36.8288C9.23088 37.1946 9.29669 37.3964 8.76426 37.554C7.43616 37.9577 6.14396 38.4937 4.84578 38.9982C4.49282 39.1243 4.36121 39.1243 4.18772 38.6955C3.16643 36.238 2.37888 33.6799 1.83663 31.0586C0.958344 27.3239 0.542104 23.4851 0.598273 19.6378C0.670062 17.7459 0.741851 17.6829 2.50068 17.3045C4.55862 16.8568 6.58068 16.2577 8.66255 15.8982C10.3137 15.6081 11.9648 15.3054 13.616 15.0027C13.7134 14.9794 13.8156 14.9966 13.9014 15.0506C13.9871 15.1046 14.0499 15.1913 14.0766 15.2928C14.7323 16.8684 15.5723 18.3514 16.5773 19.7072C16.7567 19.9531 16.7029 20.1171 16.3499 20.1613C14.5552 20.3757 12.7605 20.7288 10.9957 20.9306C9.47616 21.1072 8.05235 21.6054 6.56273 21.845C5.73716 22.0027 6.04226 22.6649 6.02431 22.9234Z" fill="white"/>
<path d="M25.8559 34.8297C25.2801 34.795 24.7028 34.795 24.127 34.8297C23.451 34.918 23.3433 34.5964 23.445 34.0352C23.4526 33.9459 23.4666 33.8573 23.4869 33.7703C24.1988 31.9225 23.5587 30.327 22.7331 28.6937C21.9075 27.0604 21.8656 27.3946 23.3313 26.3982C25.5149 24.9352 27.519 25.509 29.4095 27.0856C29.6966 27.3252 29.6368 27.5523 29.4872 27.855C29.0146 28.7757 28.5719 29.709 28.1352 30.6424C27.7404 31.4685 28.1352 32.3072 28.1352 33.1649C28.1352 33.2406 28.2309 33.3162 28.2489 33.3982C28.5779 34.773 28.5121 34.8613 27.1182 34.8487C26.6875 34.8487 26.2567 34.8487 25.826 34.8487L25.8559 34.8297Z" fill="white"/>
<path d="M28.1173 10.9982C28.1118 11.3021 28.0496 11.602 27.9342 11.8806C27.8188 12.1592 27.6525 12.4111 27.4447 12.6219C27.237 12.8328 26.9918 12.9984 26.7233 13.1093C26.4548 13.2202 26.1682 13.2743 25.8799 13.2685C25.3014 13.2556 24.75 13.0076 24.3409 12.5763C23.9318 12.1451 23.6965 11.5638 23.6843 10.9541C23.6923 10.3352 23.9331 9.74504 24.3538 9.31337C24.7745 8.8817 25.3407 8.64389 25.9277 8.65225C26.5148 8.66061 27.0746 8.91447 27.4841 9.35797C27.8936 9.80146 28.1192 10.3983 28.1113 11.0171L28.1173 10.9982Z" fill="white"/>
<path d="M70.688 46.256C70.176 46.256 69.76 46.1387 69.44 45.904C69.1413 45.6693 68.96 45.36 68.896 44.976C68.832 44.5707 68.9067 44.1227 69.12 43.632L77.568 24.912C77.8453 24.2933 78.176 23.856 78.56 23.6C78.9653 23.3227 79.424 23.184 79.936 23.184C80.4267 23.184 80.864 23.3227 81.248 23.6C81.6533 23.856 81.9947 24.2933 82.272 24.912L90.752 43.632C90.9867 44.1227 91.072 44.5707 91.008 44.976C90.944 45.3813 90.7627 45.7013 90.464 45.936C90.1653 46.1493 89.7707 46.256 89.28 46.256C88.6827 46.256 88.2133 46.1173 87.872 45.84C87.552 45.5413 87.264 45.0933 87.008 44.496L84.928 39.664L86.656 40.784H73.152L74.88 39.664L72.832 44.496C72.5547 45.1147 72.2667 45.5627 71.968 45.84C71.6693 46.1173 71.2427 46.256 70.688 46.256ZM79.872 27.888L75.392 38.544L74.56 37.52H85.248L84.448 38.544L79.936 27.888H79.872ZM96.7725 46C96.0685 46 95.5245 45.8187 95.1405 45.456C94.7778 45.072 94.5965 44.528 94.5965 43.824V25.616C94.5965 24.912 94.7778 24.3787 95.1405 24.016C95.5245 23.632 96.0685 23.44 96.7725 23.44H104.453C106.031 23.44 107.375 23.6747 108.485 24.144C109.594 24.6133 110.437 25.2853 111.013 26.16C111.61 27.0347 111.909 28.08 111.909 29.296C111.909 30.6613 111.514 31.8133 110.725 32.752C109.935 33.6907 108.858 34.32 107.493 34.64V34.16C109.071 34.3947 110.298 34.992 111.173 35.952C112.047 36.912 112.485 38.16 112.485 39.696C112.485 41.7013 111.802 43.2587 110.437 44.368C109.093 45.456 107.215 46 104.805 46H96.7725ZM98.5325 42.896H104.293C105.743 42.896 106.81 42.6187 107.493 42.064C108.175 41.488 108.517 40.6347 108.517 39.504C108.517 38.352 108.175 37.4987 107.493 36.944C106.81 36.3893 105.743 36.112 104.293 36.112H98.5325V42.896ZM98.5325 33.008H103.748C105.157 33.008 106.202 32.7413 106.885 32.208C107.589 31.6533 107.941 30.8427 107.941 29.776C107.941 28.7093 107.589 27.9093 106.885 27.376C106.202 26.8213 105.157 26.544 103.748 26.544H98.5325V33.008ZM127.444 46.32C125.097 46.32 123.081 45.8507 121.396 44.912C119.732 43.952 118.452 42.608 117.556 40.88C116.66 39.1307 116.212 37.072 116.212 34.704C116.212 32.9333 116.468 31.344 116.98 29.936C117.492 28.5067 118.228 27.2907 119.188 26.288C120.148 25.264 121.321 24.4853 122.708 23.952C124.116 23.3973 125.694 23.12 127.444 23.12C128.617 23.12 129.769 23.2693 130.9 23.568C132.03 23.8667 133.022 24.2933 133.876 24.848C134.324 25.1253 134.622 25.4667 134.772 25.872C134.921 26.256 134.953 26.64 134.868 27.024C134.782 27.3867 134.601 27.696 134.324 27.952C134.068 28.208 133.737 28.3573 133.332 28.4C132.948 28.4213 132.521 28.2827 132.052 27.984C131.39 27.5573 130.676 27.248 129.908 27.056C129.14 26.864 128.361 26.768 127.572 26.768C126.057 26.768 124.777 27.0773 123.732 27.696C122.686 28.3147 121.897 29.2107 121.364 30.384C120.83 31.5573 120.564 32.9973 120.564 34.704C120.564 36.3893 120.83 37.8293 121.364 39.024C121.897 40.2187 122.686 41.1253 123.732 41.744C124.777 42.3627 126.057 42.672 127.572 42.672C128.382 42.672 129.182 42.576 129.972 42.384C130.761 42.1707 131.508 41.8507 132.212 41.424C132.681 41.1467 133.097 41.0293 133.46 41.072C133.844 41.0933 134.164 41.2213 134.42 41.456C134.676 41.6907 134.846 41.9893 134.932 42.352C135.017 42.6933 134.996 43.056 134.868 43.44C134.74 43.8027 134.484 44.1227 134.1 44.4C133.246 45.0187 132.222 45.4987 131.028 45.84C129.854 46.16 128.66 46.32 127.444 46.32Z" fill="white"/>
</svg>
